<?xml version="1.0" standalone="no"?>
<!DOCTYPE svg PUBLIC "-//W3C//DTD SVG 20010904//EN"
 "http://www.w3.org/TR/2001/REC-SVG-20010904/DTD/svg10.dtd">
<svg version="1.0" xmlns="http://www.w3.org/2000/svg"
 width="260.000000pt" height="260.000000pt" viewBox="0 0 260.000000 260.000000"
 preserveAspectRatio="xMidYMid meet">
<metadata>
Created by potrace 1.11, written by Peter Selinger 2001-2013
</metadata>
<g transform="translate(0.000000,260.000000) scale(0.100000,-0.100000)"
fill="#000000" stroke="none">
<path d="M1083 2593 c-24 -2 -43 -8 -43 -14 0 -5 -12 -9 -26 -9 -29 0 -103
-19 -119 -31 -5 -4 -30 -12 -55 -19 -68 -18 -218 -94 -233 -117 -4 -7 -14 -13
-20 -13 -7 0 -28 -13 -47 -30 -19 -16 -38 -29 -41 -30 -12 0 -185 -178 -230
-235 -43 -54 -74 -103 -101 -155 -7 -14 -15 -27 -18 -30 -19 -19 -80 -174 -80
-205 0 -7 -4 -15 -9 -17 -5 -1 -15 -40 -23 -85 -7 -46 -16 -83 -20 -83 -4 0
-8 -18 -8 -40 0 -49 15 -53 24 -5 4 19 12 38 19 42 7 5 19 21 27 37 31 60 248
236 291 236 5 0 9 3 9 8 0 4 21 15 48 25 26 10 58 25 72 32 14 7 42 16 63 20
20 4 37 11 37 15 0 4 28 13 63 20 34 6 64 15 67 19 6 9 205 41 252 41 19 0 39
5 45 11 15 15 526 15 531 0 2 -6 20 -11 39 -11 49 0 246 -30 258 -39 5 -5 38
-14 73 -21 34 -7 62 -16 62 -20 0 -4 17 -11 38 -15 20 -3 88 -32 151 -63 148
-74 161 -81 161 -93 0 -5 6 -9 13 -9 24 0 162 -154 189 -210 37 -77 46 -101
52 -130 3 -14 3 22 0 80 -3 57 -9 107 -13 110 -5 3 -14 37 -21 75 -7 39 -19
79 -25 90 -7 11 -16 34 -19 50 -9 40 -96 215 -107 215 -5 0 -9 5 -9 11 0 14
-69 111 -87 122 -7 4 -13 13 -13 20 0 15 -141 157 -157 157 -6 0 -16 6 -20 13
-11 18 -108 87 -122 87 -6 0 -11 4 -11 9 0 9 -161 91 -220 111 -19 7 -48 18
-65 25 -16 7 -50 16 -75 20 -25 4 -51 12 -59 18 -13 11 -401 19 -488 10z"/>
<path d="M945 1859 c-38 -5 -79 -13 -90 -18 -11 -5 -62 -17 -112 -26 -51 -10
-93 -20 -93 -24 0 -3 -19 -12 -42 -19 -50 -15 -79 -27 -168 -73 -129 -65 -140
-71 -140 -80 0 -5 -5 -9 -12 -9 -6 0 -26 -11 -44 -25 -18 -14 -36 -25 -40 -25
-10 0 -54 -41 -134 -126 -11 -12 -23 -35 -26 -53 -4 -17 -10 -31 -15 -31 -5 0
-9 -22 -9 -50 0 -27 5 -50 10 -50 6 0 10 -6 10 -14 0 -8 11 -28 25 -44 14 -17
25 -33 25 -37 0 -8 48 -55 56 -55 3 0 32 -22 65 -50 33 -27 67 -50 75 -50 8 0
17 -7 20 -15 4 -8 12 -15 18 -15 7 0 26 -10 44 -23 17 -13 49 -30 72 -37 22
-7 40 -16 40 -20 0 -4 20 -13 45 -20 25 -7 45 -16 45 -20 0 -4 26 -13 58 -20
31 -7 59 -16 62 -20 6 -8 165 -40 202 -40 14 0 28 -4 30 -9 4 -12 158 -26 158
-14 0 5 -24 18 -52 28 -72 26 -224 175 -261 255 -34 75 -47 118 -47 151 0 16
-4 29 -10 29 -12 0 -14 187 -1 194 4 3 11 26 15 52 6 48 58 165 82 185 8 6 14
15 14 20 0 12 99 109 135 134 17 11 55 32 85 47 l55 27 -40 -1 c-22 0 -71 -4
-110 -9z"/>
<path d="M1535 1850 c17 -11 35 -20 41 -20 12 0 147 -100 152 -112 2 -4 21
-28 42 -54 20 -25 43 -58 50 -72 7 -15 18 -40 26 -57 24 -52 34 -117 34 -226
0 -108 -16 -219 -31 -219 -5 0 -9 -7 -9 -16 0 -18 -31 -77 -42 -82 -5 -2 -8
-10 -8 -18 0 -18 -146 -164 -165 -164 -8 0 -15 -4 -15 -8 0 -4 -22 -16 -50
-26 -76 -27 -63 -39 33 -31 45 4 84 11 87 15 3 4 43 13 90 19 47 7 99 19 115
26 17 8 50 19 74 25 24 6 51 15 60 20 83 41 170 80 179 80 7 0 12 5 12 10 0 6
6 10 13 10 7 0 29 12 48 26 19 14 43 29 54 34 35 14 153 118 195 171 22 28 40
61 40 73 0 12 5 27 12 34 9 9 9 17 0 34 -6 13 -14 34 -17 47 -4 12 -17 37 -29
55 -24 36 -100 116 -110 116 -4 0 -32 19 -62 41 -30 23 -69 50 -87 59 -96 53
-196 100 -211 100 -9 0 -16 4 -16 9 0 4 -21 14 -47 21 -27 7 -53 17 -59 21 -6
5 -46 16 -90 24 -43 9 -88 20 -99 25 -17 7 -188 30 -227 30 -7 0 1 -9 17 -20z"/>
<path d="M1225 1791 c-6 -4 -38 -14 -72 -21 -35 -7 -63 -16 -63 -19 0 -3 -14
-12 -32 -20 -17 -8 -61 -44 -98 -80 -73 -72 -127 -167 -137 -239 -3 -23 -10
-45 -14 -48 -12 -7 -12 -114 0 -114 4 0 11 -23 14 -51 4 -28 13 -64 22 -80 8
-16 22 -44 32 -61 28 -56 154 -172 204 -188 24 -8 46 -17 49 -21 9 -12 109
-29 169 -29 63 0 171 19 171 30 0 4 18 13 39 20 22 7 42 19 45 26 3 8 11 14
18 14 17 0 128 111 128 128 0 7 4 12 8 12 5 0 15 18 22 40 7 22 16 40 20 40
12 0 30 109 30 179 -1 139 -42 234 -145 336 -76 77 -154 122 -222 132 -24 3
-46 10 -49 14 -7 12 -127 12 -139 0z m153 -328 c4 -5 17 -15 29 -22 50 -26 81
-150 51 -204 -37 -65 -99 -107 -160 -107 -50 0 -124 34 -140 63 -6 12 -16 25
-22 29 -18 12 -14 157 4 172 8 6 20 20 26 30 20 37 74 57 142 54 35 -2 66 -9
70 -15z"/>
<path d="M1281 1373 c-18 -7 -47 -37 -53 -54 -7 -19 21 -65 47 -79 27 -14 64
5 84 44 11 20 10 28 -5 52 -10 16 -18 30 -18 30 -3 6 -44 11 -55 7z"/>
<path d="M2590 1231 c0 -10 -7 -32 -15 -47 -8 -16 -15 -36 -15 -45 0 -9 -7
-22 -15 -29 -8 -6 -17 -22 -21 -33 -3 -12 -15 -31 -25 -42 -10 -11 -31 -35
-45 -52 -14 -18 -32 -33 -39 -33 -7 0 -20 -11 -29 -25 -9 -14 -21 -25 -27 -25
-6 0 -25 -11 -43 -25 -18 -14 -38 -25 -44 -25 -6 0 -12 -3 -14 -7 -4 -11 -152
-83 -169 -83 -8 0 -23 -7 -33 -15 -11 -8 -27 -15 -35 -15 -9 0 -28 -6 -42 -14
-14 -7 -57 -19 -95 -26 -38 -7 -73 -16 -79 -20 -18 -12 -153 -30 -281 -37 -69
-3 -127 -10 -130 -15 -7 -12 -192 -10 -199 2 -3 6 -39 10 -80 10 -83 0 -315
28 -330 40 -5 4 -40 13 -78 20 -37 7 -70 16 -72 20 -3 5 -30 14 -60 21 -30 7
-55 15 -55 19 0 4 -18 12 -40 19 -42 12 -126 56 -206 106 -96 60 -244 229
-244 279 0 9 -4 16 -10 16 -12 0 -13 -67 -1 -74 5 -3 12 -34 16 -68 4 -35 13
-76 20 -93 8 -16 21 -57 31 -90 9 -33 19 -62 23 -65 3 -3 21 -34 40 -70 65
-126 90 -164 145 -226 31 -34 56 -65 56 -68 0 -6 60 -66 67 -66 3 0 30 -23 60
-50 30 -28 61 -50 69 -50 8 0 14 -4 14 -9 0 -10 47 -39 150 -92 36 -19 67 -36
70 -39 3 -3 34 -14 70 -25 36 -10 70 -22 75 -26 6 -3 44 -12 85 -19 41 -6 85
-17 97 -22 30 -15 356 -15 385 -1 13 6 57 17 98 23 41 7 80 16 85 20 6 4 39
15 75 25 36 9 67 20 70 24 3 3 40 24 83 46 125 65 136 71 187 114 27 23 51 41
54 41 17 0 236 246 236 266 0 5 14 27 30 48 17 22 30 45 30 52 0 7 3 14 8 16
10 5 59 106 73 153 6 22 15 45 19 50 4 6 13 42 20 80 8 39 17 75 22 81 10 14
24 194 14 194 -3 0 -6 -8 -6 -19z"/>
</g>
</svg>
