<?xml version="1.0" encoding="UTF-8" standalone="no"?>
<!-- Generator: Adobe Illustrator 16.0.0, SVG Export Plug-In . SVG Version: 6.00 Build 0)  -->

<svg
   xmlns:dc="http://purl.org/dc/elements/1.1/"
   xmlns:cc="http://creativecommons.org/ns#"
   xmlns:rdf="http://www.w3.org/1999/02/22-rdf-syntax-ns#"
   xmlns:svg="http://www.w3.org/2000/svg"
   xmlns="http://www.w3.org/2000/svg"
   xmlns:sodipodi="http://sodipodi.sourceforge.net/DTD/sodipodi-0.dtd"
   xmlns:inkscape="http://www.inkscape.org/namespaces/inkscape"
   version="1.1"
   id="Layer_1"
   x="0px"
   y="0px"
   width="250"
   height="61.926479"
   viewBox="0 0 250 61.926479"
   enable-background="new 0 0 357.5 88.625"
   xml:space="preserve"
   sodipodi:docname="ifka-logo.svg"
   inkscape:version="0.92.3 (2405546, 2018-03-11)"><metadata
   id="metadata33"><rdf:RDF><cc:Work
       rdf:about=""><dc:format>image/svg+xml</dc:format><dc:type
         rdf:resource="http://purl.org/dc/dcmitype/StillImage" /><dc:title></dc:title></cc:Work></rdf:RDF></metadata><defs
   id="defs31" /><sodipodi:namedview
   pagecolor="#ffffff"
   bordercolor="#666666"
   borderopacity="1"
   objecttolerance="10"
   gridtolerance="10"
   guidetolerance="10"
   inkscape:pageopacity="0"
   inkscape:pageshadow="2"
   inkscape:window-width="1850"
   inkscape:window-height="1016"
   id="namedview29"
   showgrid="false"
   inkscape:zoom="0.97062937"
   inkscape:cx="4.906414"
   inkscape:cy="30.982241"
   inkscape:window-x="1350"
   inkscape:window-y="27"
   inkscape:window-maximized="1"
   inkscape:current-layer="Layer_1"
   fit-margin-top="0"
   fit-margin-left="0"
   fit-margin-right="0"
   fit-margin-bottom="0" />
<g
   id="g4"
   transform="matrix(0.69962752,0,0,0.69962752,-0.46665156,-0.05229716)">
	<path
   d="m 40.455,12.222 25.671,14.789 c 1.254,0.723 2.279,2.498 2.279,3.945 v 26.752 c 0,1.447 -1.025,3.221 -2.279,3.943 L 42.734,75.128 c -1.254,0.723 -3.306,0.723 -4.56,0 L 14.784,61.651 C 13.53,60.928 12.505,59.155 12.505,57.708 V 30.956 c 0,-1.447 1.025,-3.223 2.279,-3.945 L 40.455,12.222 M 42.577,0.611 c -1.258,-0.715 -3.316,-0.715 -4.574,0 L 2.954,20.522 c -1.258,0.713 -2.287,2.482 -2.287,3.93 v 39.76 c 0,1.445 1.029,3.215 2.287,3.93 l 35.049,19.91 c 1.258,0.715 3.316,0.715 4.574,0 l 35.05,-19.91 c 1.258,-0.715 2.287,-2.484 2.287,-3.93 v -39.76 c 0,-1.447 -1.029,-3.217 -2.287,-3.93 z"
   id="path2"
   inkscape:connector-curvature="0"
   style="fill:#85adc7" />
</g>
<g
   id="g8"
   transform="matrix(0.69962752,0,0,0.69962752,-0.46665156,-0.05229716)">
	<path
   d="m 40.455,18.032 21.629,12.219 c 0.944,0.533 1.718,1.857 1.718,2.943 V 55.47 c 0,1.084 -0.773,2.408 -1.718,2.943 L 42.172,69.661 c -0.945,0.533 -2.49,0.533 -3.436,0 L 18.826,58.413 C 17.882,57.878 17.108,56.554 17.108,55.47 V 33.194 c 0,-1.086 0.773,-2.41 1.718,-2.943 L 40.455,18.032 m 1.716,-9.603 c -0.944,-0.535 -2.489,-0.535 -3.434,0 L 9.618,24.921 c -0.944,0.535 -1.717,1.861 -1.717,2.945 v 32.93 c 0,1.084 0.772,2.41 1.717,2.945 l 29.12,16.492 c 0.944,0.535 2.489,0.535 3.434,0 l 29.12,-16.492 c 0.944,-0.535 1.717,-1.861 1.717,-2.945 v -32.93 c 0,-1.084 -0.772,-2.41 -1.717,-2.945 z"
   id="path6"
   inkscape:connector-curvature="0"
   style="fill:#061f33" />
</g>
<path
   d="M 35.138092,24.984573 27.87316,20.8008 20.627118,24.984573 c -0.879432,0.501633 -1.504199,1.739274 -1.504199,2.752335 v 6.452664 c 0,1.012361 0.645756,2.250702 1.525188,2.752335 l 5.675378,3.274257 c 0.879432,0.501633 2.308072,0.501633 3.186804,0 l 5.629203,-3.274257 c 0.880131,-0.502333 1.474115,-1.739974 1.474115,-2.753034 v -6.451965 c 0,-1.013061 -0.596083,-2.250702 -1.475515,-2.752335 z"
   id="path10"
   inkscape:connector-curvature="0"
   style="fill:none;stroke-width:0.69962752" />
<path
   d="m 27.951519,17.231301 -0.05037,0.02868 c 0.03708,0 0.07416,0.0042 0.111241,0.0063 z"
   id="path12"
   inkscape:connector-curvature="0"
   style="fill:none;stroke-width:0.69962752" />
<path
   d="m 42.764032,20.411108 -13.358687,-7.77636 c -0.875234,-0.508629 -2.296178,-0.508629 -3.171412,0 l -13.29852,7.77636 c -0.875234,0.508629 -1.508397,1.753267 -1.508397,2.765628 v 15.573708 c 0,1.010962 0.63876,2.256299 1.513994,2.764228 l 13.342597,7.77776 c 0.875234,0.508629 2.288481,0.508629 3.163016,0 l 13.326505,-7.77776 c 0.875234,-0.507929 1.536382,-1.753266 1.536382,-2.764228 V 23.176736 c 0,-1.012361 -0.670943,-2.256999 -1.545478,-2.765628 z m -2.652287,5.546647 v 10.01097 0.279851 c 0,1.010962 -0.719218,2.256299 -1.595151,2.764228 l -9.060177,5.275892 c -0.875234,0.508629 -2.30947,0.508629 -3.184704,0 L 17.196844,39.012804 C 16.32231,38.504175 15.624781,37.259538 15.624781,36.248576 V 25.678604 c 0,-1.012361 0.691932,-2.257698 1.567166,-2.765628 l 9.048283,-5.274492 c 0.454058,-0.264459 1.059935,-0.388993 1.658117,-0.378498 l 0.05177,-0.02868 0.06087,0.03498 c 0.517025,0.02309 1.022855,0.143424 1.416046,0.372202 l 9.084663,5.274492 c 0.875234,0.508629 1.600049,1.753267 1.600049,2.765628 z"
   id="path14"
   inkscape:connector-curvature="0"
   style="fill:#0b5b8f;stroke-width:0.69962752" />
<g
   id="g26"
   transform="matrix(0.69962752,0,0,0.69962752,-0.46665156,-0.05229716)">
	<g
   id="g22">
		<path
   d="M 124.973,85.596 H 113.368 V 4.209 h 11.605 z"
   id="path16"
   inkscape:connector-curvature="0"
   style="fill:#85adc7" />
		<path
   d="m 134.195,44.903 c 0,-11.24 3.964,-20.833 11.895,-28.776 7.929,-7.945 17.503,-11.918 28.723,-11.918 h 24.615 v 11.626 h -24.615 c -8.008,0 -14.836,2.829 -20.483,8.488 -4.256,4.263 -6.924,9.185 -8.008,14.765 h 41.502 V 50.716 H 146.322 L 145.8,50.483 V 85.596 H 134.196 V 44.903 Z"
   id="path18"
   inkscape:connector-curvature="0"
   style="fill:#85adc7" />
		<path
   d="m 234.847,39.088 c 8.009,0 14.845,-2.838 20.511,-8.516 5.666,-5.678 8.502,-12.527 8.502,-20.551 V 4.209 h 11.605 v 5.813 c 0,11.24 -3.967,20.832 -11.896,28.777 -2.398,2.402 -4.932,4.438 -7.602,6.104 2.67,1.666 5.203,3.7 7.602,6.104 7.93,7.944 11.896,17.536 11.896,28.776 v 5.813 H 263.86 v -5.813 c 0,-8.023 -2.836,-14.873 -8.502,-20.551 -5.666,-5.678 -12.502,-8.517 -20.511,-8.517 h -15.012 v 34.88 H 208.23 V 4.209 h 11.604 v 34.879 z"
   id="path20"
   inkscape:connector-curvature="0"
   style="fill:#85adc7" />
	</g>
	<path
   d="m 357.959,41.105 c 0,-16.903 -11.253,-31.138 -26.588,-35.479 -2.838,-0.937 -6.012,-1.417 -9.863,-1.417 -4.055,0 -7.358,0.526 -10.307,1.564 -15.074,4.511 -25.102,18.646 -26.076,35.332 -0.208,3.562 -0.125,2.643 -0.125,3.798 v 40.472 h 12 v -29 h 50 v 29 h 11 V 44.903 c 0,-0.844 -0.041,-3.364 -0.041,-3.798 z m -61.422,3.27 c 0,0 0.005,-0.87 0.005,-1.151 0,-7.922 3.584,-14.929 9.197,-19.583 0.03,-0.025 0.063,-0.016 0.094,-0.041 4.303,-3.534 9.781,-5.638 15.751,-5.638 13.828,0 25.041,11.293 25.041,25.308 0,0.4 -0.022,1.105 -0.041,1.105 z"
   id="path24"
   inkscape:connector-curvature="0"
   style="fill:#85adc7" />
</g>
</svg>